<svg width="30" height="30" viewBox="0 0 30 30" fill="none" xmlns="http://www.w3.org/2000/svg">
<path d="M26.25 0H3.75C1.68187 0 0 1.68187 0 3.75V26.25C0 28.3181 1.68187 30 3.75 30H26.25C28.3181 30 30 28.3181 30 26.25V3.75C30 1.68187 28.3181 0 26.25 0Z" fill="#1976D2"/>
<path d="M25.5884 14.7962H20.8825V10.9953C20.8825 9.94625 21.7258 10.0451 22.7648 10.0451H24.6472V5.29395H20.8825C17.7634 5.29395 15.2354 7.84625 15.2354 10.9953V14.7962H11.4707V19.5473H15.2354V29.9998H20.8825V19.5473H23.706L25.5884 14.7962Z" fill="#FAFAFA"/>
</svg>
