<svg width="30" height="30" viewBox="0 0 30 30" fill="none" xmlns="http://www.w3.org/2000/svg">
<g clip-path="url(#clip0_352_1783)">
<path d="M15 30C23.2843 30 30 23.2843 30 15C30 6.71573 23.2843 0 15 0C6.71573 0 0 6.71573 0 15C0 23.2843 6.71573 30 15 30Z" fill="#5C5560"/>
<path d="M15 30C23.2843 30 30 23.2843 30 15C30 6.71573 23.2843 0 15 0C6.71573 0 0 6.71573 0 15C0 23.2843 6.71573 30 15 30Z" fill="#EEEEEE"/>
<path d="M27.9484 12.5379H22.4394H15.2897V17.7514H22.3366C21.7023 19.4443 20.4981 20.8585 18.9573 21.7622C17.7966 22.4435 16.444 22.8338 15.0001 22.8338C11.641 22.8338 8.77573 20.7194 7.6628 17.7492C7.3413 16.894 7.1661 15.9672 7.1661 14.9998C7.1661 14.1084 7.31522 13.2518 7.58897 12.4539C8.64612 9.37719 11.565 7.1658 15.0001 7.1658C16.5214 7.1658 17.9414 7.59951 19.1427 8.35045L23.412 4.85521C21.1296 2.96029 18.1977 1.82129 15.0001 1.82129C9.90683 1.82129 5.48839 4.71043 3.29505 8.9392C2.35298 10.7537 1.82153 12.8145 1.82153 14.9998C1.82153 17.2597 2.38995 19.3864 3.39214 21.2452C5.618 25.3732 9.98142 28.1784 15.0001 28.1784C18.1231 28.1784 20.992 27.0923 23.2504 25.277C25.5726 23.4102 27.2489 20.7724 27.8905 17.7514C28.0795 16.8637 28.1786 15.9433 28.1786 14.9998C28.1786 14.1584 28.0997 13.3351 27.9484 12.5379Z" fill="#FBBB00"/>
<path d="M23.2497 25.2765L23.2505 25.2773C20.992 27.0926 18.1231 28.1787 15 28.1787C9.98137 28.1787 5.61795 25.3736 3.39209 21.2454L7.66281 17.7495C8.77574 20.7197 11.641 22.8342 15.0001 22.8342C16.444 22.8342 17.7966 22.4439 18.9573 21.7625L23.2497 25.2765Z" fill="#28B446"/>
<path d="M27.9483 12.5381C28.0996 13.3353 28.1785 14.1586 28.1785 15C28.1785 15.9435 28.0793 16.8638 27.8904 17.7516C27.2488 20.7725 25.5725 23.4104 23.2503 25.2771L23.2496 25.2764L18.9571 21.7623C20.498 20.8586 21.7022 19.4445 22.3364 17.7516H15.2896V12.5381H22.4393H27.9483Z" fill="#518EF8"/>
<path d="M23.4118 4.85527L19.1425 8.35051C17.9413 7.59957 16.5213 7.16586 15 7.16586C11.5648 7.16586 8.646 9.37725 7.58885 12.4539L3.29568 8.9392H3.29492C5.48826 4.71043 9.90664 1.82129 15 1.82129C18.1976 1.82129 21.1295 2.96029 23.4118 4.85527Z" fill="#FC3F1D"/>
</g>
<defs>
<clipPath id="clip0_352_1783">
<rect width="30" height="30" fill="white"/>
</clipPath>
</defs>
</svg>
