<svg width="239" height="60" viewBox="0 0 239 60" fill="none" xmlns="http://www.w3.org/2000/svg">
<path d="M59.6356 22.5203C52.0873 22.5203 45.9814 28.8129 45.9814 36.5615C45.9814 44.3101 52.0873 50.5978 59.6356 50.5978C67.1839 50.5978 73.2898 44.3101 73.2898 36.5615C73.2898 28.8129 67.1839 22.5203 59.6356 22.5203ZM59.6356 24.1391C66.275 24.1391 71.6694 29.6963 71.6694 36.5615C71.6694 43.4266 66.2799 48.9839 59.6356 48.9839C52.9913 48.9839 47.5968 43.4266 47.5968 36.5615C47.5968 29.6963 52.9913 24.1391 59.6356 24.1391Z" fill="url(#paint0_linear_199_1011)"/>
<path d="M97.4364 22.4463C89.893 22.4463 83.7822 28.7389 83.7822 36.4875C83.7822 44.2361 89.8881 50.5238 97.4364 50.5238C104.985 50.5238 111.091 44.2361 111.091 36.4875C111.091 28.7389 104.985 22.4463 97.4364 22.4463ZM97.4364 24.0651C104.076 24.0651 109.47 29.6224 109.47 36.4875C109.47 43.3527 104.081 48.9099 97.4364 48.9099C90.7921 48.9099 85.3976 43.3527 85.3976 36.4875C85.3976 29.6224 90.7921 24.0651 97.4364 24.0651Z" fill="url(#paint1_linear_199_1011)"/>
<path d="M90.3576 34.5676C89.2955 34.5676 88.4409 35.4313 88.4409 36.4924C88.4409 37.5535 89.2955 38.4074 90.3576 38.4074C91.4197 38.4074 92.2842 37.5535 92.2842 36.4924C92.2842 35.4313 91.4197 34.5676 90.3576 34.5676ZM97.5305 34.5676C96.4684 34.5676 95.6138 35.4313 95.6138 36.4924C95.6138 37.5535 96.4684 38.4074 97.5305 38.4074C98.5926 38.4074 99.4571 37.5535 99.4571 36.4924C99.4571 35.4313 98.5926 34.5676 97.5305 34.5676ZM104.698 34.5676C103.636 34.5676 102.782 35.4313 102.782 36.4924C102.782 37.5535 103.636 38.4074 104.698 38.4074C105.761 38.4074 106.625 37.5535 106.625 36.4924C106.625 35.4313 105.761 34.5676 104.698 34.5676Z" fill="#B5B5B5"/>
<path d="M57.0672 30.5058C56.2768 30.5206 55.5605 31.1523 55.5605 32.0357V41.0823C55.5605 42.257 56.8351 42.9973 57.8527 42.41L65.6974 37.8842C66.72 37.2969 66.72 35.8261 65.6974 35.2388L57.8527 30.713C57.5958 30.565 57.3291 30.5008 57.0623 30.5058H57.0672Z" fill="#B5B5B5"/>
<path d="M59.6604 13.3601C56.4938 13.3601 53.515 13.9672 50.7091 15.1862C47.9081 16.4053 45.4579 18.0586 43.3683 20.1463C41.2786 22.234 39.6237 24.6918 38.4036 27.5099C37.1834 30.328 36.5758 33.3189 36.5758 36.4825C36.5758 39.6461 37.1834 42.6912 38.4036 45.4896C39.6237 48.288 41.2786 50.731 43.3683 52.8236C45.4579 54.9113 47.9081 56.5646 50.7091 57.7837C53.5101 59.0027 56.4889 59.6098 59.6604 59.6098C62.8319 59.6098 65.8749 59.0027 68.6759 57.7837C71.4769 56.5646 73.9271 54.9113 76.0167 52.8236C76.323 52.5176 76.6046 52.1869 76.8911 51.8612C76.8911 51.8563 76.896 51.8612 76.901 51.8513C76.901 51.8513 76.9109 51.8464 76.9109 51.8415C77.479 51.2048 78.0125 50.5385 78.5114 49.8426C78.5262 49.8229 78.546 49.7982 78.5608 49.7785C79.0153 49.1369 79.4401 48.4706 79.8353 47.7796C79.8502 47.7549 79.865 47.7253 79.8798 47.7007C80.2799 46.99 80.6504 46.2595 80.9814 45.4945C81.2778 44.8134 81.5347 44.1225 81.757 43.4217C81.9497 42.8097 82.1028 42.1878 82.2411 41.561C82.2609 41.4672 82.2955 41.3735 82.3152 41.2797C82.4437 40.6529 82.5375 40.0113 82.6166 39.3697C82.6314 39.266 82.6561 39.1624 82.666 39.0588C82.7351 38.4023 82.7648 37.7311 82.7796 37.055C82.7796 36.9612 82.7944 36.8674 82.7944 36.7737C82.7944 36.6799 82.7796 36.5911 82.7796 36.4973C82.7796 36.4134 82.7944 36.3295 82.7944 36.2456C82.7944 36.2406 82.7944 36.2308 82.7944 36.2258C82.829 34.3356 83.1995 32.5095 83.9355 30.7525C84.7062 28.9066 85.7535 27.2928 87.0724 25.9108C88.3914 24.5339 89.9327 23.4283 91.7012 22.5992C93.4697 21.77 95.3667 21.3505 97.397 21.3505C99.4274 21.3505 101.324 21.77 103.088 22.5992C104.856 23.4283 106.403 24.5339 107.722 25.9108C109.041 27.2878 110.083 28.9066 110.854 30.7525C111.624 32.5983 112.01 34.5132 112.01 36.4973C112.01 38.4813 111.624 40.4505 110.854 42.2766C110.083 44.1027 109.041 45.7166 107.722 47.1183C106.403 48.5199 104.856 49.6304 103.088 50.4645C101.319 51.2936 99.4274 51.7131 97.397 51.7131C95.3667 51.7131 93.4648 51.2936 91.7012 50.4645C89.9327 49.6353 88.3964 48.5199 87.0724 47.1183C86.2228 46.2151 85.4966 45.2132 84.8741 44.1373C83.9998 47.138 82.6808 50.2572 80.6751 52.3794C80.8184 52.5324 80.9518 52.6953 81.1 52.8433C83.1896 54.931 85.6398 56.5844 88.4408 57.8034C91.2418 59.0225 94.2305 59.6295 97.397 59.6295C100.564 59.6295 103.612 59.0225 106.413 57.8034C109.214 56.5844 111.664 54.931 113.753 52.8433C115.843 50.7557 117.498 48.3077 118.718 45.5093C119.938 42.711 120.546 39.7102 120.546 36.5022C120.546 33.2942 119.938 30.3478 118.718 27.5297C117.503 24.7115 115.848 22.2537 113.753 20.166C111.664 18.0784 109.214 16.425 106.413 15.2059C103.612 13.9869 100.608 13.3798 97.397 13.3798C94.186 13.3798 91.2418 13.9869 88.4408 15.2059C85.6398 16.425 83.1896 18.0784 81.1 20.166C80.4677 20.7978 79.8996 21.4838 79.3512 22.1846C79.0845 22.5252 78.8078 22.8657 78.5559 23.221C78.2891 23.606 78.0273 23.9959 77.7852 24.4006C77.7013 24.5388 77.6222 24.6869 77.5382 24.83C77.5382 24.8349 77.5333 24.8448 77.5284 24.8497C77.3752 25.1064 77.2221 25.3679 77.0788 25.6295C76.9652 25.8368 76.8664 26.0638 76.7577 26.2761C76.7281 26.3402 76.6935 26.4044 76.6589 26.4735C76.6392 26.5179 76.6194 26.5574 76.5996 26.5969C76.4465 26.9078 76.2785 27.2039 76.1353 27.5247C76.1353 27.5297 76.1353 27.5395 76.1303 27.5445C76.1303 27.5543 76.1205 27.5642 76.1155 27.5691C74.0506 32.243 74.3124 36.0334 74.3124 36.0334L74.2581 36.0432C74.2581 36.1962 74.2778 36.3443 74.2778 36.4923C74.2778 38.5208 73.8925 40.4456 73.1219 42.2717C72.3512 44.0978 71.304 45.7117 69.985 47.1133C68.666 48.515 67.1247 49.6255 65.3562 50.4595C63.5877 51.2887 61.6907 51.7082 59.6604 51.7082C57.63 51.7082 55.7331 51.2887 53.9695 50.4595C52.201 49.6304 50.6646 48.515 49.3407 47.1133C48.0217 45.7117 46.9745 44.0978 46.2038 42.2717C45.4332 40.4456 45.0479 38.5208 45.0479 36.4923C45.0479 34.4639 45.4332 32.5934 46.2038 30.7475C46.9745 28.9017 48.0217 27.2878 49.3407 25.9059C50.6597 24.5289 52.201 23.4234 53.9695 22.5942C55.738 21.7651 57.63 21.3456 59.6604 21.3456C61.6907 21.3456 63.5926 21.7651 65.3562 22.5942C67.1247 23.4234 68.6611 24.5289 69.985 25.9059C70.889 26.8486 71.6547 27.9146 72.3018 29.0794C73.3096 25.5407 75.0633 22.6189 76.4663 20.6546C76.3131 20.4918 76.1748 20.3141 76.0167 20.1562C73.9271 18.0685 71.4769 16.4151 68.6759 15.1961C65.8749 13.977 62.8714 13.37 59.6604 13.37V13.3601ZM0 14.2139V58.756H20.5899C22.4968 58.756 24.2949 58.5339 25.9795 58.0897C27.664 57.6455 29.1361 56.9002 30.3958 55.8687C31.6555 54.8323 32.6485 53.48 33.3796 51.797C34.1107 50.1141 34.4763 48.056 34.4763 45.6228C34.4763 44.2459 34.2046 42.9429 33.6562 41.7288C33.1079 40.5098 32.4064 39.4338 31.5518 38.5011C30.6972 37.5683 29.7339 36.828 28.6569 36.2801C27.58 35.7323 26.4982 35.4164 25.4015 35.3325C26.4586 35.293 27.4269 34.9821 28.321 34.3948C29.2152 33.8075 29.9809 33.0869 30.6082 32.2331C31.2356 31.3793 31.7346 30.4514 32.1001 29.4347C32.4657 28.423 32.6485 27.4655 32.6485 26.5722C32.6485 24.0551 32.2977 21.9971 31.6111 20.398C30.9195 18.794 29.9907 17.5404 28.8101 16.6273C27.6344 15.7143 26.2512 15.0826 24.6654 14.7371C23.0797 14.3916 21.4001 14.2189 19.6167 14.2189H0V14.2139ZM124.508 14.2139V59.6098H133.197V38.9601L152.251 59.6098H163.736L143.25 37.7213L161.933 14.2781H151.253L133.187 37.2869V14.2189H124.498L124.508 14.2139ZM185.719 14.2139V59.6098H194.409V38.9601L213.462 59.6098H224.948L204.462 37.7213L223.145 14.2781H212.469L194.404 37.2869V14.2189H185.714L185.719 14.2139ZM8.53138 21.7602H19.6167C20.2244 21.7602 20.8023 21.9033 21.3507 22.1895C21.899 22.4758 22.3733 22.8361 22.7783 23.2803C23.1834 23.7245 23.5095 24.2575 23.7515 24.8645C23.9936 25.4716 24.1171 26.0984 24.1171 26.7499C24.1171 27.4013 24.0084 28.0577 23.7861 28.729C23.5638 29.4002 23.2378 29.9924 22.8129 30.5205C22.3881 31.0486 21.8546 31.478 21.2272 31.8037C20.5998 32.1295 19.8637 32.2874 19.0091 32.2874H8.53138V21.7602ZM178.843 25.6345C177.178 27.2928 175.518 28.9412 173.942 30.5205C173.942 30.5205 173.942 30.5205 173.942 30.5254C173.71 30.7574 173.394 30.8808 173.083 30.8808C172.776 30.8808 172.465 30.7623 172.223 30.5205C171.532 29.8246 170.84 29.1435 170.153 28.4476V59.6048H178.843V25.6345ZM8.53138 39.8978H19.676C21.6273 39.8978 23.1587 40.4061 24.2752 41.4179C25.3916 42.4296 25.9498 43.6882 25.9498 45.1885C25.9498 45.919 25.8066 46.6395 25.52 47.3502C25.2335 48.0609 24.8482 48.7075 24.3641 49.2948C23.875 49.8821 23.3119 50.351 22.6647 50.6964C22.0126 51.0419 21.326 51.2147 20.5949 51.2147H8.53632V39.8978H8.53138Z" fill="url(#paint2_linear_199_1011)"/>
<path d="M173.261 7.39813C172.006 7.37839 170.746 7.61036 169.576 8.10883C164.053 10.468 162.215 17.2443 165.772 22.0415C166.068 22.4363 166.513 22.9299 167.115 23.5221C169.091 25.4765 171.072 27.4556 173.053 29.4495C173.073 29.4693 173.098 29.4742 173.122 29.4742C173.147 29.4742 173.172 29.4643 173.192 29.4495C175.148 27.4852 177.163 25.4666 179.258 23.3888C179.811 22.8361 180.236 22.3623 180.528 21.9625C183.941 17.2788 182.222 10.621 176.897 8.20754C175.76 7.69426 174.516 7.41787 173.261 7.39813ZM173.231 10.9566C175.326 11.0108 177.356 12.2348 178.26 14.3373C179.362 16.8988 178.408 19.1592 176.585 21.0544C175.518 22.1698 174.338 23.1371 173.177 24.1686C173.142 24.1982 173.122 24.1933 173.122 24.1489V22.2438C173.127 22.1994 173.108 22.1747 173.063 22.1747C172.624 22.155 172.283 22.1204 172.046 22.0711C167.387 21.0939 165.866 15.2306 169.615 12.1953C170.692 11.3218 171.971 10.9319 173.231 10.9615V10.9566ZM170.48 15.8081C170.06 15.8081 169.724 16.1486 169.724 16.5632C169.724 16.9778 170.06 17.3183 170.48 17.3183C170.899 17.3183 171.235 16.9778 171.235 16.5632C171.235 16.1486 170.899 15.8081 170.48 15.8081ZM173.122 15.8081C172.708 15.8081 172.362 16.1486 172.362 16.5632C172.362 16.9778 172.708 17.3183 173.122 17.3183C173.537 17.3183 173.873 16.9778 173.873 16.5632C173.873 16.1486 173.537 15.8081 173.122 15.8081ZM175.756 15.8081C175.341 15.8081 175 16.1486 175 16.5632C175 16.9778 175.341 17.3183 175.756 17.3183C176.17 17.3183 176.511 16.9778 176.511 16.5632C176.511 16.1486 176.17 15.8081 175.756 15.8081Z" fill="#B5B5B5"/>
<path d="M221.594 1.45594H224.158V8.47902H225.872V1.45594H228.436V0H221.594V1.45594Z" fill="#B5B5B5"/>
<path d="M238.488 0H237.189H236.843L234.403 6.02613L231.948 0H231.602H230.303H229.922V8.47902H231.602V3.0254L233.944 8.47902H234.877L237.189 3.05008V8.47902H238.898V0H238.488Z" fill="#B5B5B5"/>
<defs>
<linearGradient id="paint0_linear_199_1011" x1="45.2036" y1="36.4162" x2="69.0473" y2="36.7078" gradientUnits="userSpaceOnUse">
<stop stop-color="#B5B5B5"/>
<stop offset="1" stop-color="#A8A8A8" stop-opacity="0"/>
</linearGradient>
<linearGradient id="paint1_linear_199_1011" x1="110.034" y1="35.2413" x2="84.4157" y2="37.1648" gradientUnits="userSpaceOnUse">
<stop stop-color="#B5B5B5"/>
<stop offset="1" stop-color="#A8A8A8" stop-opacity="0"/>
</linearGradient>
<linearGradient id="paint2_linear_199_1011" x1="0.81016" y1="35.7323" x2="224.533" y2="35.7323" gradientUnits="userSpaceOnUse">
<stop stop-color="#503895"/>
<stop offset="1" stop-color="#CB3F97"/>
</linearGradient>
</defs>
</svg>
