<svg width="283" height="155" viewBox="0 0 283 155" fill="none" xmlns="http://www.w3.org/2000/svg">
<path d="M77.612 30.6989C52.2118 30.6989 31.6528 51.7907 31.6528 77.7563C31.6528 103.722 52.2069 124.799 77.612 124.799C103.017 124.799 123.571 103.727 123.571 77.7563C123.571 51.7859 103.017 30.6989 77.612 30.6989ZM77.612 36.1228C99.9674 36.1228 118.113 54.7461 118.113 77.7563C118.113 100.767 99.9626 119.39 77.612 119.39C55.2614 119.39 37.0912 100.767 37.0912 77.7563C37.0912 54.7461 55.2565 36.1228 77.612 36.1228Z" fill="url(#paint0_linear_381_1047)"/>
<path d="M204.859 30.4539C179.458 30.4539 158.899 51.5457 158.899 77.5113C158.899 103.477 179.454 124.554 204.859 124.554C230.264 124.554 250.818 103.482 250.818 77.5113C250.818 51.5409 230.264 30.4539 204.859 30.4539ZM204.859 35.8778C227.214 35.8778 245.36 54.5011 245.36 77.5113C245.36 100.522 227.209 119.145 204.859 119.145C182.508 119.145 164.338 100.522 164.338 77.5113C164.338 54.5011 182.503 35.8778 204.859 35.8778Z" fill="url(#paint1_linear_381_1047)"/>
<path d="M181.043 71.0654C177.47 71.0654 174.591 73.9624 174.591 77.5167C174.591 81.0709 177.47 83.9338 181.043 83.9338C184.616 83.9338 187.529 81.0709 187.529 77.5167C187.529 73.9624 184.616 71.0654 181.043 71.0654ZM205.175 71.0654C201.602 71.0654 198.724 73.9624 198.724 77.5167C198.724 81.0709 201.602 83.9338 205.175 83.9338C208.749 83.9338 211.661 81.0709 211.661 77.5167C211.661 73.9624 208.749 71.0654 205.175 71.0654ZM229.303 71.0654C225.729 71.0654 222.851 73.9624 222.851 77.5167C222.851 81.0709 225.729 83.9338 229.303 83.9338C232.876 83.9338 235.793 81.0709 235.793 77.5167C235.793 73.9624 232.881 71.0654 229.303 71.0654Z" fill="#C6C6C8"/>
<path d="M68.9584 57.4524C66.3004 57.4962 63.8921 59.619 63.8921 62.5793V92.9025C63.8921 96.8463 68.1801 99.3197 71.6164 97.3478L98.0249 82.1813C101.461 80.2094 101.461 75.287 98.0249 73.3151L71.6164 58.1486C70.7598 57.6569 69.8444 57.4427 68.9633 57.4573L68.9584 57.4524Z" fill="#C6C6C8"/>
<path d="M77.6934 0.00486897C67.0321 0.00486897 56.9974 2.04492 47.5696 6.12015C38.1369 10.2003 29.8987 15.741 22.8596 22.7424C15.8206 29.7438 10.2501 37.9771 6.14812 47.4275C2.04611 56.878 0 66.8981 0 77.5024C0 88.1068 2.05101 98.307 6.14812 107.684C10.2501 117.067 15.8206 125.261 22.8596 132.262C29.8987 139.264 38.1369 144.805 47.5696 148.885C57.0023 152.965 67.0321 155 77.6934 155C88.3547 155 98.6098 152.96 108.038 148.885C117.47 144.805 125.708 139.264 132.747 132.262C133.785 131.23 134.72 130.12 135.694 129.039C135.709 129.02 135.719 129.025 135.729 129.005C135.743 128.995 135.753 128.981 135.763 128.971C137.677 126.839 139.478 124.609 141.142 122.272C141.196 122.199 141.255 122.125 141.309 122.052C142.831 119.9 144.265 117.666 145.592 115.353C145.641 115.265 145.69 115.173 145.739 115.08C147.09 112.704 148.333 110.25 149.454 107.689C150.453 105.411 151.319 103.093 152.073 100.737C152.724 98.6917 153.233 96.5981 153.703 94.4947C153.776 94.1734 153.894 93.8667 153.958 93.5453C154.393 91.4468 154.706 89.2948 154.966 87.1379C155.01 86.7873 155.093 86.4514 155.132 86.1008C155.367 83.8952 155.465 81.6507 155.519 79.3818C155.524 79.0653 155.568 78.7537 155.573 78.4373C155.568 78.1256 155.519 77.8189 155.519 77.5073C155.519 77.2249 155.563 76.9474 155.573 76.6699C155.573 76.6455 155.573 76.6212 155.573 76.5968C155.685 70.2625 156.939 64.1472 159.415 58.2461C162.015 52.0627 165.534 46.6485 169.974 42.028C174.414 37.4074 179.602 33.712 185.55 30.9221C191.497 28.1371 197.895 26.7349 204.728 26.7349C211.562 26.7349 217.945 28.1371 223.892 30.9221C229.84 33.7071 235.043 37.4025 239.488 42.028C243.933 46.6485 247.432 52.0627 250.032 58.2461C252.631 64.4344 253.928 70.8467 253.928 77.5073C253.928 84.1679 252.626 90.7603 250.032 96.8756C247.432 102.991 243.933 108.405 239.488 113.094C235.048 117.782 229.84 121.522 223.892 124.307C217.945 127.092 211.562 128.494 204.728 128.494C197.895 128.494 191.492 127.097 185.55 124.307C179.602 121.522 174.419 117.782 169.974 113.094C167.11 110.07 164.678 106.716 162.578 103.098C159.641 113.157 155.191 123.601 148.451 130.714C148.935 131.225 149.381 131.766 149.88 132.262C156.919 139.264 165.157 144.805 174.59 148.885C184.023 152.965 194.072 155 204.733 155C215.395 155 225.65 152.96 235.077 148.885C244.51 144.805 252.748 139.264 259.787 132.262C266.826 125.261 272.397 117.067 276.494 107.684C280.596 98.3022 282.647 88.2431 282.647 77.5024C282.647 66.7617 280.596 56.878 276.494 47.4275C272.397 37.9771 266.826 29.7438 259.787 22.7424C252.748 15.741 244.51 10.2003 235.077 6.12015C225.645 2.04005 215.532 0.00486897 204.733 0.00486897C193.935 0.00486897 184.023 2.04492 174.59 6.12015C165.157 10.2003 156.919 15.741 149.88 22.7424C147.751 24.8604 145.832 27.1585 143.986 29.515C143.086 30.664 142.156 31.7936 141.314 32.9914C140.408 34.2767 139.542 35.5913 138.714 36.94C138.426 37.4074 138.171 37.904 137.892 38.3763C137.877 38.4007 137.868 38.425 137.858 38.4493C137.344 39.316 136.825 40.1778 136.34 41.0688C135.959 41.7699 135.626 42.5148 135.259 43.2354C135.151 43.4545 135.038 43.6736 134.931 43.8927C134.857 44.0339 134.803 44.1703 134.73 44.3115C134.221 45.3583 133.643 46.3466 133.173 47.4226C133.164 47.447 133.164 47.4713 133.154 47.4957C133.139 47.5249 133.115 47.5541 133.1 47.5882C126.139 63.261 127.025 75.9493 127.025 75.9493L126.844 75.9833C126.859 76.4897 126.918 76.9863 126.918 77.4927C126.918 84.2896 125.615 90.7457 123.021 96.861C120.427 102.976 116.902 108.39 112.463 113.079C108.023 117.768 102.834 121.507 96.8867 124.292C90.9393 127.077 84.5415 128.479 77.7081 128.479C70.8747 128.479 64.4916 127.082 58.5442 124.292C52.5968 121.507 47.413 117.768 42.9683 113.079C38.5285 108.39 35.0041 102.976 32.4098 96.861C29.8105 90.7457 28.5134 84.2896 28.5134 77.4927C28.5134 70.6958 29.8154 64.4198 32.4098 58.2315C35.009 52.0481 38.5285 46.6339 42.9683 42.0133C47.413 37.3928 52.5968 33.6973 58.5442 30.9075C64.4916 28.1225 70.8747 26.7203 77.7081 26.7203C84.5415 26.7203 90.9442 28.1225 96.8867 30.9075C102.834 33.6925 108.018 37.3879 112.463 42.0133C115.507 45.1781 118.082 48.7421 120.26 52.6469C123.657 40.7961 129.551 30.9951 134.28 24.4124C133.761 23.8623 133.296 23.2731 132.762 22.7376C125.723 15.7361 117.485 10.1954 108.052 6.11528C98.6196 2.03518 88.5065 0 77.7081 0L77.6934 0.00486897Z" fill="url(#paint2_linear_381_1047)"/>
<defs>
<linearGradient id="paint0_linear_381_1047" x1="30.604" y1="77.3516" x2="111.062" y2="78.3399" gradientUnits="userSpaceOnUse">
<stop stop-color="#C6C6C8"/>
<stop offset="1" stop-color="#C6C6C8" stop-opacity="0"/>
</linearGradient>
<linearGradient id="paint1_linear_381_1047" x1="246.247" y1="74.1988" x2="161.297" y2="80.6055" gradientUnits="userSpaceOnUse">
<stop stop-color="#C6C6C8"/>
<stop offset="1" stop-color="#C6C6C8" stop-opacity="0"/>
</linearGradient>
<linearGradient id="paint2_linear_381_1047" x1="226" y1="77.5" x2="-55" y2="77.5" gradientUnits="userSpaceOnUse">
<stop stop-color="#B64397"/>
<stop offset="1" stop-color="#30008E"/>
</linearGradient>
</defs>
</svg>
