<svg width="17" height="16" viewBox="0 0 17 16" fill="none" xmlns="http://www.w3.org/2000/svg">
<path d="M16.5936 6.18182L14.1195 1.81818C13.4834 0.727273 12.3524 0 11.08 0H6.06133C4.78898 0 3.658 0.727273 3.02183 1.81818L0.477131 6.18182C-0.159044 7.34546 -0.159044 8.72727 0.477131 9.81818L2.95114 14.1818C3.58732 15.2727 4.7183 16 5.99064 16H11.0094C12.2817 16 13.4127 15.2727 14.0489 14.1818L16.5229 9.81818C17.159 8.65455 17.159 7.27273 16.5229 6.18182H16.5936ZM12.4231 6.25455L7.96985 10.8364C7.82848 10.9818 7.61642 11.0545 7.47505 11.0545C7.33368 11.0545 7.12162 11.0545 6.98025 10.8364L4.7183 8.50909C4.43555 8.21818 4.43555 7.78182 4.7183 7.49091C5.00104 7.2 5.42516 7.2 5.7079 7.49091L7.47505 9.30909L11.4335 5.23636C11.7162 4.94545 12.1403 4.94545 12.4231 5.23636C12.7058 5.52727 12.7058 5.96364 12.4231 6.25455Z" fill="url(#paint0_linear_352_1101)"/>
<defs>
<linearGradient id="paint0_linear_352_1101" x1="8.5" y1="0" x2="8.5" y2="16" gradientUnits="userSpaceOnUse">
<stop stop-color="#0D01C2"/>
<stop offset="1" stop-color="#06005C"/>
</linearGradient>
</defs>
</svg>
